<svg width="26" height="26" viewBox="0 0 26 26" fill="none" xmlns="http://www.w3.org/2000/svg">
<g clip-path="url(#clip0_58_415)">
<path d="M13 26C20.1797 26 26 20.1797 26 13C26 5.8203 20.1797 0 13 0C5.8203 0 0 5.8203 0 13C0 20.1797 5.8203 26 13 26Z" fill="#F0F0F0"/>
<path d="M7.02617 18.0874L3.80756 22.1924C6.15995 24.5451 9.40959 26.0004 12.9995 26.0004C18.3737 26.0004 22.9854 22.7388 24.9652 18.0874H7.02617Z" fill="#FFDA44"/>
<path d="M24.9854 7.9606C23.0166 3.28411 18.3919 0.000488281 12.9995 0.000488281C9.40959 0.000488281 6.15995 1.45583 3.80756 3.80852L7.06314 7.9606H24.9854Z" fill="#496E2D"/>
<path d="M2.82599 9.56152V16.3912H25.5521C25.8437 15.31 25.9999 14.1733 25.9999 12.9999C25.9999 11.8095 25.8395 10.6568 25.5398 9.56152H2.82599Z" fill="black"/>
<path d="M3.80718 3.80713C-1.26963 8.88393 -1.26963 17.1151 3.80718 22.192C5.9051 20.094 7.92279 18.0764 12.9996 12.9996L3.80718 3.80713Z" fill="#A2001D"/>
<path d="M5.26173 9.6084L6.10343 12.1991H8.82764L6.62384 13.8003L7.46548 16.391L5.26173 14.7899L3.05788 16.391L3.89973 13.8003L1.69592 12.1991H4.41993L5.26173 9.6084Z" fill="#FFDA44"/>
<path d="M7.72534 12.999H2.79834V15.2599H7.72534V12.999Z" fill="#F0F0F0"/>
<path d="M8.65816 10.4078L7.85881 9.6084L5.26145 12.2058L2.66409 9.6084L1.86475 10.4078L4.46439 13.0028L1.86475 15.6025L2.66409 16.391L5.26145 13.7984L7.85881 16.391L8.65816 15.6025L6.05852 13.0028L8.65816 10.4078Z" fill="black"/>
</g>
<defs>
<clipPath id="clip0_58_415">
<rect width="26" height="26" fill="white"/>
</clipPath>
</defs>
</svg>
