<svg width="26" height="26" viewBox="0 0 26 26" fill="none" xmlns="http://www.w3.org/2000/svg">
<g clip-path="url(#clip0_58_419)">
<path d="M25.191 17.523C25.7136 16.1147 25.9996 14.5914 25.9996 13.0013C25.9996 11.4111 25.7136 9.88793 25.191 8.47956L12.9996 7.34912L0.808163 8.47956C0.285624 9.88793 -0.000427246 11.4111 -0.000427246 13.0013C-0.000427246 14.5914 0.285624 16.1147 0.808163 17.523L12.9996 18.6534L25.191 17.523Z" fill="#FFDA44"/>
<path d="M13.0004 25.9998C18.5899 25.9998 23.355 22.4719 25.1918 17.5215H0.80896C2.64582 22.4719 7.41083 25.9998 13.0004 25.9998Z" fill="#0052B4"/>
<path d="M13.0004 0.000976562C7.41083 0.000976562 2.64582 3.52885 0.80896 8.47926H25.1918C23.355 3.52885 18.5899 0.000976562 13.0004 0.000976562Z" fill="#6DA544"/>
</g>
<defs>
<clipPath id="clip0_58_419">
<rect width="26" height="26" fill="white"/>
</clipPath>
</defs>
</svg>
