<svg width="26" height="26" viewBox="0 0 26 26" fill="none" xmlns="http://www.w3.org/2000/svg">
<g clip-path="url(#clip0_58_443)">
<path d="M13 26C20.1797 26 26 20.1797 26 13C26 5.8203 20.1797 0 13 0C5.8203 0 0 5.8203 0 13C0 20.1797 5.8203 26 13 26Z" fill="#F0F0F0"/>
<path d="M25.9995 12.999C25.9995 7.40948 22.4717 2.64437 17.5212 0.807617V25.1905C22.4717 23.3536 25.9995 18.5886 25.9995 12.999Z" fill="#FF9811"/>
<path d="M-6.10352e-05 12.9995C-6.10352e-05 18.5891 3.52781 23.3541 8.47822 25.1909V0.808105C3.52781 2.64486 -6.10352e-05 7.40997 -6.10352e-05 12.9995Z" fill="#6DA544"/>
</g>
<defs>
<clipPath id="clip0_58_443">
<rect width="26" height="26" fill="white"/>
</clipPath>
</defs>
</svg>
