<svg width="26" height="26" viewBox="0 0 26 26" fill="none" xmlns="http://www.w3.org/2000/svg">
<g clip-path="url(#clip0_58_447)">
<path d="M13 26C20.1797 26 26 20.1797 26 13C26 5.8203 20.1797 0 13 0C5.8203 0 0 5.8203 0 13C0 20.1797 5.8203 26 13 26Z" fill="#F0F0F0"/>
<path d="M3.80711 22.1925C-1.26969 17.1156 -1.26969 8.88447 3.80711 3.80762C3.80676 3.80818 11.3039 13 11.3039 13L3.80711 22.1925Z" fill="black"/>
<path d="M11.3046 13.0003L1.72438 6.52637C1.42736 7.04266 1.16543 7.58155 0.940369 8.13933L5.79043 13.0004L0.940521 17.8617C1.16538 18.419 1.42706 18.9576 1.72387 19.4735L11.3046 13.0003Z" fill="#FFDA44"/>
<path d="M25.8902 11.3042H11.3042L3.80769 3.80762C2.99986 4.61545 2.29801 5.52905 1.72438 6.52594L8.18574 12.9998L1.72388 19.4729C2.2975 20.4701 2.99965 21.384 3.80769 22.192L11.3042 14.6955H25.8902C25.9624 14.1404 26.0002 13.5745 26.0002 12.9998C26.0002 12.4251 25.9624 11.8592 25.8902 11.3042Z" fill="#6DA544"/>
<path d="M5.08484 23.3113C7.27701 24.9963 10.0211 25.9988 12.9997 25.9988C19.0061 25.9988 24.0601 21.9251 25.5519 16.3901H12.0061L5.08484 23.3113Z" fill="#0052B4"/>
<path d="M25.5519 9.6077C24.0601 4.07275 19.0061 -0.000976562 12.9997 -0.000976562C10.0211 -0.000976562 7.27701 1.0015 5.08484 2.68652L12.006 9.6077H25.5519Z" fill="#D80027"/>
</g>
<defs>
<clipPath id="clip0_58_447">
<rect width="26" height="26" fill="white"/>
</clipPath>
</defs>
</svg>
