<svg width="26" height="26" viewBox="0 0 26 26" fill="none" xmlns="http://www.w3.org/2000/svg">
<g clip-path="url(#clip0_58_431)">
<path d="M13 26C20.1797 26 26 20.1797 26 13C26 5.8203 20.1797 0 13 0C5.8203 0 0 5.8203 0 13C0 20.1797 5.8203 26 13 26Z" fill="#F0F0F0"/>
<path d="M-0.000427246 13.0004C-0.000427246 18.59 3.52745 23.355 8.47786 25.1919V0.809082C3.52745 2.64584 -0.000427246 7.41095 -0.000427246 13.0004Z" fill="#6DA544"/>
<path d="M25.9999 13.0004C25.9999 7.41095 22.4721 2.64584 17.5217 0.809082V25.192C22.4721 23.355 25.9999 18.59 25.9999 13.0004Z" fill="#6DA544"/>
</g>
<defs>
<clipPath id="clip0_58_431">
<rect width="26" height="26" fill="white"/>
</clipPath>
</defs>
</svg>
