<svg width="26" height="26" viewBox="0 0 26 26" fill="none" xmlns="http://www.w3.org/2000/svg">
<g clip-path="url(#clip0_58_411)">
<path d="M13 26C20.1797 26 26 20.1797 26 13C26 5.8203 20.1797 0 13 0C5.8203 0 0 5.8203 0 13C0 20.1797 5.8203 26 13 26Z" fill="#F0F0F0"/>
<path d="M24.7565 7.44526C24.096 6.0501 23.1946 4.79159 22.1059 3.7229L13.0008 2.82666L3.8957 3.72295C3.86665 3.75144 3.83831 3.78059 3.80957 3.80938L7.44551 7.44531L13.0008 7.61497L24.7565 7.44526Z" fill="#FFDA44"/>
<path d="M3.80896 22.1928C3.8568 22.2406 3.90453 22.2885 3.95308 22.3356L13.0003 23.1753L22.0475 22.3356C23.1474 21.2692 24.0599 20.0106 24.7296 18.6133L7.9133 18.0884C6.46639 19.5353 4.79752 21.2041 3.80896 22.1928Z" fill="#FFDA44"/>
<path d="M25.8706 11.1672L10.739 10.7393L12.9998 13.0001C12.3302 13.6698 11.3305 14.6695 10.739 15.261L25.8626 14.8896C25.9525 14.2727 25.9999 13.642 25.9999 13.0001C25.9999 12.3779 25.9552 11.7662 25.8706 11.1672Z" fill="black"/>
<path d="M13 0.000488281C9.45408 0.000488281 6.24034 1.42084 3.89496 3.72286H22.1051C19.7597 1.42084 16.546 0.000488281 13 0.000488281Z" fill="#6DA544"/>
<path d="M11.1666 11.1677H25.8702C25.6847 9.85351 25.3031 8.60256 24.7552 7.44531H7.44421L11.1666 11.1677Z" fill="#D80027"/>
<path d="M7.3877 18.6135H24.7289C25.2831 17.4571 25.6709 16.206 25.8624 14.8911H11.1101C9.66854 16.3326 8.44684 17.5543 7.3877 18.6135Z" fill="#D80027"/>
<path d="M13 26.0003C16.5169 26.0003 19.707 24.6032 22.0472 22.3345H3.95288C6.29308 24.6032 9.48316 26.0003 13 26.0003Z" fill="#6DA544"/>
<path d="M4.64227 3.04395C4.35327 3.28678 4.07443 3.54135 3.80768 3.808L13.0001 13.0004L3.80768 22.1928C4.07438 22.4595 4.35327 22.7141 4.64227 22.9569L14.5988 13.0004L4.64227 3.04395Z" fill="black"/>
<path d="M5.22665 9.6084L6.06835 12.1991H8.79251L6.5887 13.8003L7.43045 16.391L5.22665 14.7899L3.02279 16.391L3.86464 13.8003L1.66089 12.1991H4.3849L5.22665 9.6084Z" fill="#D80027"/>
<path d="M7.54228 13.2109L5.34863 12.4337C5.34863 12.4337 5.18654 10.9132 5.17674 10.8616C5.10229 10.4695 4.75764 10.1729 4.34377 10.1729C3.87557 10.1729 3.49593 10.5524 3.49593 11.0207C3.49593 11.0983 3.50725 11.1731 3.52681 11.2446L2.91174 11.8638C2.91174 11.8638 3.64228 11.8638 4.00537 11.8638C4.00537 12.9989 3.15834 12.9989 3.15834 14.1294L3.62822 15.2598H6.45429L6.92534 14.1294H6.92514C6.97231 14.0209 7.00095 13.909 7.01279 13.7973C7.41883 13.633 7.54228 13.2109 7.54228 13.2109Z" fill="#FFDA44"/>
</g>
<defs>
<clipPath id="clip0_58_411">
<rect width="26" height="26" fill="white"/>
</clipPath>
</defs>
</svg>
