<svg width="26" height="26" viewBox="0 0 26 26" fill="none" xmlns="http://www.w3.org/2000/svg">
<g clip-path="url(#clip0_58_435)">
<path d="M13 26C20.1797 26 26 20.1797 26 13C26 5.8203 20.1797 0 13 0C5.8203 0 0 5.8203 0 13C0 20.1797 5.8203 26 13 26Z" fill="#F0F0F0"/>
<path d="M13.0003 -0.000976562C7.84635 -0.000976562 3.39303 2.99842 1.29028 7.34687H24.7103C22.6076 2.99842 18.1543 -0.000976562 13.0003 -0.000976562Z" fill="black"/>
<path d="M13.0003 26.0002C7.84635 26.0002 3.39303 23.0008 1.29028 18.6523H24.7103C22.6076 23.0008 18.1543 26.0002 13.0003 26.0002Z" fill="#496E2D"/>
<path d="M25.3862 9.04248H0.614017C0.21579 10.2901 0.00012207 11.6193 0.00012207 12.999C0.00012207 14.3787 0.21579 15.7079 0.614017 16.9555H25.3862C25.7845 15.7079 26.0001 14.3787 26.0001 12.999C26.0001 11.6193 25.7845 10.2901 25.3862 9.04248Z" fill="#A2001D"/>
<path d="M17.0482 6.00697L15.5087 5.29639L13.0002 10.9763L10.4917 5.29639L8.95215 6.00697L12.0665 12.9995L8.95215 19.992L10.4917 20.7026L13.0002 15.0227L15.5087 20.7026L17.0482 19.992L13.9339 12.9995L17.0482 6.00697Z" fill="#F0F0F0"/>
<path d="M14.0458 6.67639C13.4498 6.02552 13.0002 5.65137 13.0002 5.65137C13.0002 5.65137 12.5505 6.02547 11.9545 6.67639V19.3219C12.5505 19.9729 13.0002 20.3471 13.0002 20.3471C13.0002 20.3471 13.4498 19.9729 14.0458 19.322V6.67639Z" fill="#F0F0F0"/>
<path d="M10.1743 9.1023V16.8978C10.804 18.0137 11.5748 18.9284 12.1525 19.5348V6.46533C11.5748 7.07171 10.804 7.98643 10.1743 9.1023Z" fill="#A2001D"/>
<path d="M15.8261 9.10279C15.1963 7.98687 14.4255 7.0722 13.8478 6.46582V19.5353C14.4255 18.9289 15.1963 18.0142 15.8261 16.8983V9.10279Z" fill="#A2001D"/>
<path d="M15.826 9.10107V16.8966C16.4636 15.7668 16.9565 14.4308 16.9565 12.9989C16.9565 11.567 16.4636 10.231 15.826 9.10107Z" fill="black"/>
<path d="M10.1739 9.10107V16.8966C9.53634 15.7668 9.04346 14.4308 9.04346 12.9989C9.04346 11.567 9.53634 10.231 10.1739 9.10107Z" fill="black"/>
</g>
<defs>
<clipPath id="clip0_58_435">
<rect width="26" height="26" fill="white"/>
</clipPath>
</defs>
</svg>
