<svg width="26" height="26" viewBox="0 0 26 26" fill="none" xmlns="http://www.w3.org/2000/svg">
<g clip-path="url(#clip0_58_423)">
<path d="M26.0003 13.0005C26.0003 12.4258 25.9626 11.8599 25.8903 11.3049H11.3046C8.64868 8.64912 3.80776 3.80851 3.80796 3.80811C-1.26883 8.8849 -1.26883 17.116 3.80796 22.1929L11.3047 14.6962H25.8903C25.9626 14.1411 26.0003 13.5752 26.0003 13.0005Z" fill="black"/>
<path d="M25.9964 13.2949C25.9958 13.32 25.9953 13.3452 25.9946 13.3704C25.9952 13.3451 25.9958 13.32 25.9964 13.2949Z" fill="#F0F0F0"/>
<path d="M25.9839 13.6499C25.9827 13.6748 25.981 13.6995 25.9797 13.7243C25.981 13.6996 25.9826 13.6748 25.9839 13.6499Z" fill="#F0F0F0"/>
<path d="M25.9655 13.9351C25.9629 13.9716 25.9603 14.0082 25.9574 14.0446C25.9603 14.0082 25.9628 13.9716 25.9655 13.9351Z" fill="#F0F0F0"/>
<path d="M25.9225 11.583C25.9273 11.6265 25.9321 11.67 25.9364 11.7136C25.9321 11.67 25.9273 11.6265 25.9225 11.583Z" fill="#F0F0F0"/>
<path d="M25.9789 12.2739C25.9803 12.2987 25.9819 12.3235 25.9831 12.3483C25.9819 12.3235 25.9803 12.2987 25.9789 12.2739Z" fill="#F0F0F0"/>
<path d="M25.994 12.6279C25.9947 12.653 25.9952 12.6783 25.9958 12.7034C25.9953 12.6782 25.9947 12.653 25.994 12.6279Z" fill="#F0F0F0"/>
<path d="M25.9578 11.9551C25.9607 11.9915 25.9633 12.0281 25.9658 12.0647C25.9632 12.0281 25.9607 11.9915 25.9578 11.9551Z" fill="#F0F0F0"/>
<path d="M25.8902 11.3038C25.8961 11.3483 25.9013 11.3931 25.9066 11.4378C25.135 4.99455 19.6514 -0.000488281 13.0003 -0.000488281C9.41038 -0.000488281 6.16034 1.45465 3.8078 3.80729L11.3043 11.3039H25.8902V11.3038Z" fill="#D80027"/>
<path d="M25.8902 14.6955H11.3043L3.8078 22.1921C6.16034 24.5447 9.41038 25.9998 13.0003 25.9998C19.6514 25.9998 25.1351 21.0048 25.9066 14.5615C25.9013 14.6062 25.896 14.6509 25.8902 14.6955Z" fill="#6DA544"/>
<path d="M25.9364 14.2866C25.932 14.3302 25.9273 14.3737 25.9225 14.4173C25.9273 14.3737 25.9321 14.3303 25.9364 14.2866Z" fill="#F0F0F0"/>
<path d="M25.9659 12.0649C25.9708 12.1345 25.9753 12.2042 25.9791 12.274C25.9752 12.2042 25.9708 12.1345 25.9659 12.0649Z" fill="black"/>
<path d="M25.906 11.4385C25.9118 11.4867 25.9174 11.5351 25.9226 11.5835C25.9173 11.5351 25.9117 11.4868 25.906 11.4385Z" fill="black"/>
<path d="M25.9363 11.7134C25.9442 11.7941 25.9514 11.8751 25.9578 11.9563C25.9514 11.8751 25.9443 11.7941 25.9363 11.7134Z" fill="black"/>
<path d="M26.0006 13C26.0006 13.099 25.999 13.1975 25.9968 13.2959C25.999 13.1975 26.0006 13.0989 26.0006 13Z" fill="black"/>
<path d="M25.9792 13.7246C25.9754 13.7945 25.9709 13.8642 25.966 13.9337C25.9709 13.8642 25.9753 13.7945 25.9792 13.7246Z" fill="black"/>
<path d="M25.9578 14.0444C25.9514 14.1256 25.9442 14.2066 25.9363 14.2873C25.9443 14.2066 25.9514 14.1256 25.9578 14.0444Z" fill="black"/>
<path d="M25.9226 14.417C25.9174 14.4654 25.9118 14.5137 25.906 14.562C25.9117 14.5137 25.9173 14.4654 25.9226 14.417Z" fill="black"/>
<path d="M25.9968 12.7046C25.999 12.803 26.0006 12.9016 26.0006 13.0005C26.0006 12.9016 25.999 12.803 25.9968 12.7046Z" fill="black"/>
<path d="M25.9844 12.3481C25.9889 12.4413 25.9924 12.5347 25.995 12.6284C25.9924 12.5347 25.989 12.4413 25.9844 12.3481Z" fill="black"/>
<path d="M25.9949 13.3706C25.9923 13.4642 25.9888 13.5577 25.9843 13.6508C25.9889 13.5577 25.9923 13.4642 25.9949 13.3706Z" fill="black"/>
<path d="M25.9881 12.4295H10.8271L3.03947 4.64307C2.78774 4.90855 2.5149 5.27925 2.34615 5.54326L9.79367 12.9947L2.3399 20.4486C2.48747 20.7111 2.80897 21.0997 3.03469 21.3526L10.8273 13.56H25.9899C25.998 13.3725 26.0005 13.1842 26.0005 12.9948C26.0005 12.741 25.9935 12.5539 25.9881 12.4295Z" fill="#FFDA44"/>
<path d="M3.15824 15.7709V14.682C4.24485 14.682 5.1288 13.7979 5.1288 12.7114C5.1288 11.9426 4.50333 11.3172 3.7346 11.3172C3.2109 11.3172 2.78479 11.7433 2.78479 12.2671C2.78479 12.602 3.05723 12.8745 3.39219 12.8745C3.5815 12.8745 3.73552 12.7204 3.73552 12.531H4.82437C4.82437 13.3208 4.18188 13.9633 3.39224 13.9633C2.4569 13.9634 1.69604 13.2024 1.69604 12.2672C1.69604 11.143 2.61061 10.2285 3.73465 10.2285C5.10382 10.2285 6.21775 11.3425 6.21775 12.7116C6.2177 14.3984 4.84524 15.7709 3.15824 15.7709Z" fill="#FFDA44"/>
</g>
<defs>
<clipPath id="clip0_58_423">
<rect width="26" height="26" fill="white"/>
</clipPath>
</defs>
</svg>
